<?xml version="1.0" encoding="utf-8"?>
<!-- Generator: Adobe Illustrator 25.1.0, SVG Export Plug-In . SVG Version: 6.00 Build 0)  -->
<svg version="1.1" id="Calque_1" xmlns="http://www.w3.org/2000/svg" xmlns:xlink="http://www.w3.org/1999/xlink" x="0px" y="0px"
	 viewBox="0 0 110 35" style="enable-background:new 0 0 110 35;" xml:space="preserve">
<path d="M22.1,3.2l-3.2-1l0.8,10.3l5.1-0.6L22.1,3.2z M1.1,15.7L8,30.1l10.2-2.2V25l-7.4,0.5L10.7,25l7.5-1.8v-3l-9,0.1l-0.1-0.4
	l9.1-1.5v-3.3L7.4,14.3l-0.2-0.5l11-0.8V8.8l-15-1.5L1.1,15.7z M91.6,31.5l-6.1-1v-0.8l5.9-0.2L91.3,28h-7.5l-0.4,3.8l6.2,1.1v0.7
	l-6.5,0.3l-0.2,1.4H92L91.6,31.5z M23.8,30.9l-0.1,1.4l2.2,0.1v1.4l-4.7-0.1l0.2-4.1l6.4-0.1L27.7,28h-8.3l-0.7,7.3h9.4l-0.2-4.5
	L23.8,30.9z M75.2,33.5v-1.3l4.4-0.1v-1.4l-4.5-0.1v-1.3l5.9-0.1v-1.5h-8l-0.2,7.5h8.4l-0.1-1.5C81.1,33.8,75.2,33.5,75.2,33.5z
	 M57.3,35.2l-0.8-7.4h-2.1l-3.1,3.5l-3.1-3.5h-2.1l-0.7,7.4h2.5l0.2-4.8l3.2,3.3l3.2-3.3l0.2,4.8H57.3z M58.1,0.8h-5l-0.4,22.9h6
	L58.1,0.8z M95.6,1H80l-0.6,22.9h17.3L95.6,1z M90.8,18.9l-5.5,0.2L85,5.6l5.8,0.2C90.8,5.8,90.8,18.9,90.8,18.9z M78.1,5.8l-0.6-5
	H62.1l0.2,4.4l4.9,0.2l0.5,18.3h6.1L72,5.6L78.1,5.8z M43.3,23.6h6.6l-4.3-10.3l3.4-1.9L46.7,0.8H29.9l-0.6,5l3.8-0.1l-1.8,18.1h5.9
	l0.2-5.8l4.2-2.3C41.6,15.7,43.3,23.7,43.3,23.6z M37.7,5.4l4.8-0.1l0.6,4.6l-5.6,2.6L37.7,5.4z M39.3,35.2h2.5l-2-7.4h-6l-2,7.4
	h2.5l0.4-1.9l4.1,0.1C38.8,33.4,39.3,35.2,39.3,35.2z M35.1,32l0.5-2.4l2.4-0.1l0.5,2.4L35.1,32z M103.4,31.4l-6.1-1v-0.8l5.9-0.2
	l-0.1-1.5h-7.5l-0.4,3.8l6.2,1.1v0.7l-6.5,0.3l-0.2,1.4h9.1L103.4,31.4z M70.9,35.2l-0.8-7.4H68l-3.1,3.5l-3.1-3.5h-2.1L59,35.2h2.5
	l0.2-4.8l3.2,3.3l3.2-3.3l0.2,4.8H70.9z"/>
</svg>
