<?xml version="1.0" encoding="utf-8"?>
<!-- Generator: Adobe Illustrator 25.1.0, SVG Export Plug-In . SVG Version: 6.00 Build 0)  -->
<svg version="1.1" id="Calque_1" xmlns="http://www.w3.org/2000/svg" xmlns:xlink="http://www.w3.org/1999/xlink" x="0px" y="0px"
	 viewBox="0 0 60 75" style="enable-background:new 0 0 60 75;" xml:space="preserve">
<style type="text/css">
	.st0{fill:none;stroke:#000000;stroke-width:2;stroke-linecap:round;stroke-linejoin:round;}
</style>
<desc>Created with Sketch.</desc>
<g>
	<g transform="translate(1.000000, 1.000000)">
		<circle class="st0" cx="28.9" cy="9.5" r="5"/>
		<path class="st0" d="M26,26.1c0.3-1.2,0.6-2.1,0.7-2.6c0.9-2.7,0-4.3-0.7-5c-3.8-1.2-6.4-4.5-6.7-8.4s2-7.6,5.5-9.2
			S32.8,0,35.5,2.8c3.6,3.6,3.7,9.3,0.3,13l0,0c-1.8,1.8-2.9,5.6-3.8,10.1"/>
		<path class="st0" d="M24.2,33.8C21.9,44,19,58,19,58s7.7,0.7,9.8-8.4c1-4.3,1.5-11,2.3-17.4"/>
		<circle class="st0" cx="48.5" cy="29.1" r="5"/>
		<path class="st0" d="M30.6,32.3c0.2,0,0.4-0.1,0.6-0.1c1.5-0.4,2.7-0.7,3.3-0.9c2.7-0.9,4.3,0,5,0.7c1.2,3.8,4.5,6.4,8.4,6.7
			c3.9,0.2,7.6-2,9.2-5.5c1.6-3.6,0.8-7.8-1.9-10.6c-3.6-3.6-9.3-3.7-13-0.3l0,0c-1.8,1.8-5.6,2.9-10.1,3.8
			c-0.9,0.2-1.8,0.3-2.8,0.5"/>
		<path class="st0" d="M24.7,27C24.7,27,24.7,27,24.7,27c-6.1,0.7-12.2,1.2-16.3,2.2C-0.7,31.3,0,39,0,39s13.9-2.9,24.2-5.2
			c0.5-0.1,1-0.2,1.5-0.3"/>
		<circle class="st0" cx="27.4" cy="29.8" r="4"/>
	</g>
</g>
</svg>
