<?xml version="1.0" encoding="utf-8"?>
<!-- Generator: Adobe Illustrator 25.1.0, SVG Export Plug-In . SVG Version: 6.00 Build 0)  -->
<svg version="1.1"
	 id="Calque_1" xmlns:cc="http://creativecommons.org/ns#" xmlns:dc="http://purl.org/dc/elements/1.1/" xmlns:inkscape="http://www.inkscape.org/namespaces/inkscape" xmlns:rdf="http://www.w3.org/1999/02/22-rdf-syntax-ns#" xmlns:sodipodi="http://sodipodi.sourceforge.net/DTD/sodipodi-0.dtd" xmlns:svg="http://www.w3.org/2000/svg"
	 xmlns="http://www.w3.org/2000/svg" xmlns:xlink="http://www.w3.org/1999/xlink" x="0px" y="0px" viewBox="0 0 100 125"
	 style="enable-background:new 0 0 100 125;" xml:space="preserve">
<g transform="translate(0,-952.36218)">
	<path d="M35.8,958.4c-1.1,0.1-1.9,1.1-1.8,2.2c0,0.3,0.2,0.7,0.3,0.9l4,6c0.5,1,1.8,1.3,2.7,0.8c1-0.5,1.3-1.8,0.8-2.7
		c-0.1-0.1-0.1-0.2-0.2-0.3l-4-6C37.2,958.7,36.5,958.3,35.8,958.4z M49.8,958.4c-1,0.1-1.8,1-1.8,2v6c0,1.1,0.9,2,2,2s2-0.9,2-2
		c0,0,0,0,0-0.1v-6c0-1.1-0.9-2-2-2C50,958.4,49.9,958.4,49.8,958.4z M63.7,958.4c-0.6,0.1-1.1,0.4-1.4,0.9l-4,6
		c-0.7,0.9-0.5,2.1,0.3,2.8c0.9,0.7,2.1,0.5,2.8-0.3c0.1-0.1,0.1-0.2,0.2-0.3l4-6c0.6-0.9,0.4-2.2-0.5-2.8
		C64.7,958.5,64.2,958.3,63.7,958.4z M36.8,972.4c-0.1,0-0.3,0-0.4,0.1l-12,4c-0.2,0.1-0.4,0.2-0.6,0.3l-13,10
		c-0.8,0.6-1,1.8-0.4,2.7l37.8,55.7c0,0,0,0,0,0c0.1,0.1,0.1,0.2,0.2,0.3c0,0,0,0,0.1,0.1c0,0,0,0.1,0.1,0.1c0,0,0,0,0.1,0
		c0.3,0.3,0.7,0.5,1.1,0.6c0.1,0,0.3,0,0.4,0c0.1,0,0.3,0,0.4-0.1c0.2,0,0.4-0.1,0.6-0.2c0.2-0.1,0.3-0.2,0.5-0.4
		c0.1-0.1,0.1-0.1,0.2-0.2c0,0,0,0,0,0l0.1-0.1c0-0.1,0.1-0.1,0.1-0.2l37.8-55.6c0.6-0.9,0.4-2.1-0.4-2.7l-13-10
		c-0.2-0.1-0.4-0.2-0.6-0.3l-12-4c-0.2-0.1-0.4-0.1-0.6-0.1H37C36.9,972.4,36.9,972.4,36.8,972.4L36.8,972.4z M37.2,976.4h25.5
		l6.1,2l-9.2,4H40.4l-9.2-4C31.2,978.5,37.2,976.4,37.2,976.4z M25.7,980.4l12,5.2l-2.1,9.2l-19.2-7.2L25.7,980.4L25.7,980.4z
		 M74.3,980.4l9.3,7.1l-19.2,7.2l-2.1-9.2L74.3,980.4L74.3,980.4z M41.6,986.4h16.9l2.1,9h-21L41.6,986.4z M16.9,992l18.5,6.9
		l9.5,34.3C44.8,1033.2,16.9,992,16.9,992z M83.1,992l-27.9,41.2l9.5-34.3L83.1,992z M39.7,999.4h20.7L50,1036.8L39.7,999.4
		L39.7,999.4z"/>
</g>
</svg>
