<?xml version="1.0" encoding="utf-8"?>
<!-- Generator: Adobe Illustrator 25.1.0, SVG Export Plug-In . SVG Version: 6.00 Build 0)  -->
<svg version="1.1" id="Calque_1" xmlns="http://www.w3.org/2000/svg" xmlns:xlink="http://www.w3.org/1999/xlink" x="0px" y="0px"
	 viewBox="0 0 100 125" style="enable-background:new 0 0 100 125;" xml:space="preserve">
<g>
	<g>
		<g>
			<g>
				<g>
					<g>
						<g>
							<g>
								<g>
									<path d="M16.6,87c-2.7,0-6.7-0.4-9.6-2.7c-1.9-1.4-3-3.6-3.2-5.8c-0.1-2.2,0.7-4.4,2.4-6.1l22.8-22.8c0.8-0.8,2-0.8,2.8,0
										s0.8,2,0,2.8L9,75.1c-0.9,0.9-1.3,1.9-1.3,3c0.1,1.1,0.7,2.2,1.6,2.9c2.4,1.8,6,2,8.1,1.9l0.6-5.9c0-0.5,0.2-0.9,0.6-1.2
										l18.1-18.1c0.8-0.8,2-0.8,2.8,0s0.8,2,0,2.8L21.9,78.2L21.2,85c-0.1,0.9-0.8,1.6-1.7,1.8C19.4,86.8,18.2,87,16.6,87z"/>
								</g>
							</g>
						</g>
					</g>
				</g>
			</g>
		</g>
		<g>
			<g>
				<g>
					<g>
						<g>
							<g>
								<g>
									<path d="M54.4,76.9c-0.5,0-1-0.2-1.4-0.6l-24-24c-0.4-0.4-0.6-0.9-0.6-1.4s0.2-1,0.6-1.4l33-33c2.2-2.2,5.2-3.4,8.3-3.4
										s6.1,1.2,8.3,3.4l0,0l0,0l17.1,17.1c0.4,0.4,0.6,0.9,0.6,1.4s-0.2,1-0.6,1.4L55.8,76.3C55.4,76.7,54.9,76.9,54.4,76.9z
										 M33.2,50.9l21.2,21.2L91.5,35L75.8,19.3l0,0c-1.5-1.5-3.4-2.3-5.5-2.3s-4.1,0.8-5.5,2.3L33.2,50.9z"/>
								</g>
							</g>
						</g>
					</g>
				</g>
			</g>
		</g>
		<g>
			<g>
				<g>
					<g>
						<g>
							<g>
								<g>
									<path d="M49.5,71.1c-0.3,0-0.5-0.1-0.7-0.3c-0.4-0.4-0.4-1,0-1.4l39.9-39.9c0.4-0.4,1-0.4,1.4,0s0.4,1,0,1.4L50.2,70.8
										C50,70.9,49.8,71.1,49.5,71.1z"/>
								</g>
							</g>
						</g>
					</g>
				</g>
			</g>
		</g>
		<g>
			<g>
				<g>
					<g>
						<g>
							<g>
								<g>
									<g>
										<g>
											<path d="M69.9,25.5c-0.5,0-1-0.2-1.3-0.5c-0.4-0.4-0.6-0.8-0.6-1.3c0-0.5,0.2-1,0.6-1.3s0.8-0.6,1.3-0.6l0,0
												c0.5,0,1,0.2,1.3,0.6l0,0c0.4,0.4,0.6,0.8,0.6,1.3s-0.2,1-0.6,1.3C70.8,25.3,70.4,25.5,69.9,25.5z M69.8,23.7
												C69.8,23.7,69.8,23.7,69.8,23.7c0.2,0,0.2-0.1,0.1-0.1c0,0-0.1,0-0.2,0l0,0C69.8,23.5,69.8,23.7,69.8,23.7L69.8,23.7z"/>
										</g>
									</g>
								</g>
							</g>
						</g>
					</g>
				</g>
			</g>
		</g>
	</g>
</g>
</svg>
