<?xml version="1.0" encoding="utf-8"?>
<!-- Generator: Adobe Illustrator 25.1.0, SVG Export Plug-In . SVG Version: 6.00 Build 0)  -->
<svg version="1.1" id="Calque_1" xmlns="http://www.w3.org/2000/svg" xmlns:xlink="http://www.w3.org/1999/xlink" x="0px" y="0px"
	 viewBox="0 0 100 125" style="enable-background:new 0 0 100 125;" xml:space="preserve">
<path d="M41.2,27.7c7.6,0,13.4-3.1,13.4-7.2s-5.7-7.2-13.4-7.2s-13.4,3.1-13.4,7.2S33.6,27.7,41.2,27.7z M41.2,17
	c5.9,0,9.8,2.1,9.8,3.6s-3.9,3.6-9.8,3.6s-9.8-2.1-9.8-3.6S35.3,17,41.2,17z"/>
<path d="M41.2,85.5h17.6c12,0,22.7,3.4,26.6,8.4c0.7,0.9,2,1.3,3.1,0.9c1.1-0.4,1.9-1.4,1.9-2.6V48.1c0-4.4-3.5-8.5-9.7-11.4
	c-2.5-1.1-5.2-2-7.9-2.6V20.6C72.7,11.8,58.9,5,41.2,5C23.5,5,9.7,11.8,9.7,20.6l0,49.3C9.7,78.6,23.5,85.5,41.2,85.5z M41.2,8.6
	c16.7,0,27.9,6.2,27.9,12c0,5.8-11.2,12-27.9,12s-27.9-6.2-27.9-12C13.3,14.8,24.5,8.6,41.2,8.6L41.2,8.6z M69.1,27.9v5.5
	c-2.5-0.4-5.1-0.7-7.7-0.8C64.2,31.5,66.9,29.9,69.1,27.9z M13.3,27.9c5,4.7,14.6,7.9,26.1,8.2c0,0,3.6,0,3.6,0l15.8,0
	c7.7,0,14.9,1.4,20.3,3.9c4.9,2.3,7.7,5.2,7.7,8.1v42c-5.3-5-15.9-8.2-27.9-8.2H41.2c-16.7,0-27.9-6.2-27.9-12L13.3,27.9z"/>
<rect x="39.4" y="74.8" width="3.6" height="3.5"/>
<rect x="39.4" y="39.7" width="3.6" height="3.5"/>
<rect x="39.4" y="46.7" width="3.6" height="3.5"/>
<rect x="39.4" y="53.7" width="3.6" height="3.5"/>
<rect x="39.4" y="67.8" width="3.6" height="3.5"/>
<rect x="39.4" y="60.8" width="3.6" height="3.5"/>
</svg>
